<?xml version="1.0" encoding="UTF-8"?>
<svg id="Capa_1" data-name="Capa 1" xmlns="http://www.w3.org/2000/svg" viewBox="0 0 280.56 46.62">
  <defs>
    <style>
      .cls-1 {
        fill: #006df0;
      }

      .cls-2 {
        fill: #0d0d0d;
      }
    </style>
  </defs>
  <path class="cls-2" d="m0,46.1V0h13.26c2.63,0,4.9.26,6.83.78,1.92.52,3.51,1.29,4.77,2.3,1.26,1.01,2.2,2.24,2.82,3.7.62,1.46.93,3.11.93,4.95,0,1.22-.21,2.39-.64,3.52-.42,1.13-1.04,2.17-1.84,3.13-.8.96-1.79,1.79-2.95,2.49-1.16.71-2.49,1.24-3.99,1.61,3.63.54,6.42,1.75,8.37,3.62,1.95,1.87,2.93,4.33,2.93,7.4,0,1.95-.35,3.71-1.04,5.28s-1.7,2.89-3.03,3.97c-1.33,1.09-2.95,1.92-4.89,2.49-1.93.58-4.13.86-6.58.86H0Zm3.32-24.53h10c2.13,0,3.95-.27,5.46-.81,1.51-.54,2.75-1.26,3.71-2.15.97-.89,1.68-1.9,2.13-3.03.46-1.13.68-2.29.68-3.49,0-3.11-.98-5.46-2.95-7.05-1.97-1.6-5-2.39-9.11-2.39H3.32v18.93Zm0,2.44v19.42h11.57c4.06,0,7.12-.87,9.19-2.62,2.06-1.75,3.09-4.21,3.09-7.38,0-1.45-.28-2.76-.83-3.93-.55-1.16-1.35-2.15-2.39-2.96s-2.32-1.44-3.84-1.87c-1.52-.43-3.25-.65-5.18-.65H3.32Z"/>
  <path class="cls-2" d="m52.42,13.16c1.82,0,3.51.31,5.07.94,1.55.63,2.9,1.55,4.04,2.75s2.03,2.69,2.67,4.45c.64,1.76.96,3.78.96,6.06,0,.48-.07.8-.21.98-.14.17-.36.26-.67.26h-23.39v.62c0,2.43.28,4.57.85,6.42.56,1.85,1.37,3.39,2.41,4.64,1.04,1.25,2.3,2.19,3.78,2.82,1.48.63,3.13.94,4.95.94,1.63,0,3.04-.18,4.24-.54,1.19-.36,2.2-.76,3.01-1.21s1.46-.85,1.94-1.21.83-.54,1.04-.54c.28,0,.5.11.65.32l.85,1.04c-.52.65-1.21,1.26-2.07,1.82s-1.81,1.05-2.87,1.45c-1.05.4-2.18.72-3.39.96s-2.42.36-3.63.36c-2.22,0-4.23-.39-6.06-1.16s-3.39-1.89-4.7-3.37c-1.31-1.48-2.32-3.29-3.03-5.42-.71-2.14-1.07-4.59-1.07-7.35,0-2.32.33-4.47.99-6.43.66-1.97,1.62-3.66,2.87-5.08,1.25-1.42,2.78-2.54,4.59-3.34,1.81-.8,3.87-1.21,6.17-1.21Zm.05,2.31c-1.67,0-3.17.26-4.49.78-1.32.52-2.47,1.27-3.43,2.25-.97.98-1.75,2.15-2.34,3.52s-.99,2.9-1.19,4.59h21.34c0-1.74-.24-3.3-.72-4.67-.48-1.38-1.15-2.55-2.02-3.5-.87-.96-1.91-1.69-3.12-2.2-1.21-.51-2.56-.77-4.03-.77Z"/>
  <path class="cls-2" d="m101.12,26.71v19.38h-.78v-19.38L83.33.49h.65c.2,0,.35.09.46.26l15.34,23.78c.17.28.34.55.5.8.16.25.31.5.44.77.11-.26.25-.52.42-.77.17-.25.35-.52.52-.8L117.02.75c.11-.17.26-.26.46-.26h.65l-17.01,26.23Z"/>
  <path class="cls-2" d="m131.42,13.65c2.24,0,4.22.4,5.96,1.19,1.74.79,3.2,1.91,4.38,3.34,1.18,1.43,2.08,3.17,2.69,5.2.61,2.03.91,4.28.91,6.76s-.3,4.72-.91,6.73c-.61,2.01-1.5,3.73-2.69,5.16-1.18,1.43-2.64,2.54-4.38,3.31-1.74.77-3.73,1.16-5.96,1.16s-4.25-.39-5.98-1.16c-1.73-.77-3.18-1.87-4.37-3.31-1.18-1.43-2.08-3.15-2.69-5.16-.61-2.01-.91-4.25-.91-6.73s.3-4.73.91-6.76c.61-2.03,1.5-3.76,2.69-5.2,1.18-1.43,2.64-2.55,4.37-3.34,1.73-.79,3.72-1.19,5.98-1.19Zm0,32.19c2.17,0,4.08-.38,5.73-1.14s3.02-1.82,4.12-3.19c1.1-1.37,1.92-3.02,2.48-4.95.55-1.93.83-4.07.83-6.42s-.28-4.49-.83-6.43c-.55-1.94-1.38-3.61-2.48-5-1.1-1.39-2.47-2.47-4.12-3.24s-3.56-1.16-5.73-1.16-4.11.39-5.75,1.16c-1.64.77-3.01,1.85-4.11,3.24-1.1,1.39-1.92,3.06-2.48,5-.55,1.94-.83,4.09-.83,6.43s.28,4.49.83,6.42c.55,1.93,1.38,3.58,2.48,4.95,1.1,1.37,2.46,2.43,4.11,3.19,1.64.76,3.56,1.14,5.75,1.14Z"/>
  <path class="cls-2" d="m154.29,14.17v20.46c0,1.78.2,3.37.59,4.77.39,1.4.99,2.59,1.81,3.57.81.98,1.83,1.72,3.05,2.23s2.66.77,4.33.77c2.5,0,4.79-.66,6.89-1.99,2.1-1.32,3.95-3.16,5.55-5.51V14.17h.78v31.93h-.2c-.3,0-.46-.17-.46-.52l-.13-6.12c-.76,1.09-1.6,2.07-2.51,2.96s-1.9,1.64-2.96,2.26c-1.06.62-2.18,1.1-3.36,1.43-1.17.34-2.38.5-3.62.5-3.56,0-6.21-1.05-7.95-3.16-1.74-2.11-2.61-5.05-2.61-8.83V14.17h.78Z"/>
  <path class="cls-2" d="m188.76,46.1V14.17h.2c.3,0,.46.17.46.52l.1,8.86c.46-1.59,1.02-2.99,1.69-4.22.67-1.23,1.47-2.26,2.38-3.11.91-.85,1.95-1.49,3.11-1.92,1.16-.43,2.47-.65,3.93-.65,1.04,0,2.01.11,2.9.33.89.22,1.75.52,2.57.91l-.13.26c-.04.06-.08.13-.11.18-.03.05-.1.08-.21.08s-.29-.05-.54-.16c-.25-.11-.58-.23-.98-.36-.4-.13-.89-.25-1.47-.36-.58-.11-1.25-.16-2.04-.16-2.85,0-5.15.93-6.91,2.8s-3.15,4.52-4.17,7.95v20.98h-.78Z"/>
  <path class="cls-1" d="m243.03.49v.72h-25.87v22.02h22.61v.72h-22.61v22.15h-.78V.49h26.65Z"/>
  <path class="cls-1" d="m255.22,2.31c0,.46-.19.86-.57,1.22-.38.36-.8.54-1.25.54-.5,0-.93-.18-1.29-.54s-.54-.77-.54-1.22c0-.5.18-.93.54-1.29s.79-.54,1.29-.54c.46,0,.87.18,1.25.54.38.36.57.79.57,1.29Zm-1.43,11.86v31.93h-.78V14.17h.78Z"/>
  <path class="cls-1" d="m274.24,46.62c-1.87,0-3.33-.51-4.4-1.53-1.06-1.02-1.6-2.7-1.6-5.05v-23.85h-5.28c-.3,0-.46-.11-.46-.33v-.2l5.73-.13.26-12.84c0-.11.03-.21.08-.31.05-.1.14-.15.25-.15h.19v13.29h10.88v.65h-10.88v23.85c0,1.09.14,2,.41,2.75.27.75.65,1.36,1.12,1.82.48.47,1.03.81,1.66,1.03.63.22,1.3.33,2.02.33.91,0,1.71-.14,2.39-.42.68-.28,1.27-.59,1.74-.91.48-.32.86-.63,1.16-.91s.5-.42.63-.42c.09,0,.17.04.26.13l.13.13c-.33.44-.72.84-1.19,1.22-.47.38-.98.71-1.53.98-.55.27-1.14.48-1.76.63-.62.15-1.23.23-1.84.23Z"/>
</svg>